<?xml version="1.0" encoding="UTF-8"?>
<svg id="logosandtypes_com" data-name="logosandtypes com" xmlns="http://www.w3.org/2000/svg" viewBox="0 0 150 150">
  <defs>
    <style>
      .cls-1 {
        fill: #000100;
      }

      .cls-1, .cls-2 {
        fill-rule: evenodd;
      }

      .cls-3 {
        fill: none;
      }

      .cls-2 {
        fill: aqua;
      }
    </style>
  </defs>
  <path class="cls-3" d="M0,0H150V150H0V0Z"/>
  <path class="cls-1" d="M7,75.26C7,37.89,37.49,7.6,75.1,7.6s68.1,30.29,68.1,67.66-30.49,67.66-68.1,67.66S7,112.63,7,75.26Z"/>
  <path class="cls-2" d="M87.96,71.92c9.97,0,17.68-7.93,17.68-17.62s-7.94-17.56-17.74-17.63c-8.07-.05-14.41,.01-25.19,.01-1.42,0-2.64,.97-2.96,2.33l-1.52,6.65c-.05,.25,.12,.49,.37,.52l17.74,2.33,4.69,.63c4.57,.6,7.75,3.82,7.65,8.21-.08,3.66-2.6,6.8-6.21,7.63-5.24,1.19-9.94-2.68-10.03-7.69-.02-1.58,.42-3.07,1.2-4.33l-16.18-2.13c-.22-.03-.43,.11-.48,.33l-6.09,26.69c-.05,.25,.12,.49,.37,.52l24.8,3.25,2.68,.35c5.33,.72,9.55,4.61,9.39,9.98-.14,4.59-3.58,8.52-8.17,9.26-6.03,.97-11.31-3.57-11.42-9.4-.04-2.3,.74-4.43,2.06-6.12l-20.48-2.67c-.22-.03-.43,.11-.48,.33l-4.78,20.99c-1.11,4.82,2.59,9.46,7.59,9.48,5.26,.01,24.87-.01,35.29-.01,11.71,0,21.11-9.38,21.11-20.96s-9.23-20.96-20.89-20.96Z"/>
</svg>